<svg xmlns="http://www.w3.org/2000/svg" width="120" height="107.2" viewBox="0 0 120 107.2"><path d="M5.3 64.2C1.6 39.3 17.8 13.8 53.5 11.1c27.9-2.1 58.7 1.6 61.6 37.2 2 25.1-17.6 50.8-48.2 53.1C30.2 104.1 9 89.1 5.3 64.2z" fill="#f05623"/><path d="M5.3 64.2s-.1-1.3-.4-3.6c-.2-2.4-.2-5.9.3-10.2.7-4.3 2.1-9.6 5.1-15 3-5.4 7.6-10.9 13.9-15.2 6.3-4.3 14.2-7.4 22.8-8.7 2.2-.3 4.4-.5 6.6-.8 2.2-.1 4.5-.3 6.8-.3 4.6-.1 9.2 0 14 .4 4.7.5 9.5 1.3 14.2 2.7 4.7 1.4 9.2 3.6 13.1 6.7 2 1.5 3.8 3.3 5.3 5.3 1.6 1.9 2.9 4.1 4 6.4 1.1 2.3 1.9 4.7 2.6 7.1.6 2.5 1.1 4.9 1.4 7.5l.2 1.9.1 1.9.1 1.9v.9l-.1 1-.3 3.8-.7 3.7c-1.1 4.9-2.9 9.7-5.3 14.1-2.5 4.3-5.6 8.3-9.1 11.7-3.6 3.3-7.6 6.2-11.8 8.5-4.3 2.1-8.7 3.9-13.2 4.8-4.5 1.1-9 1.3-13.3 1.5-8.7.3-17-.6-24.4-2.6C30 97.4 23.7 94 19.1 90c-4.7-4-7.8-8.6-9.8-12.5-1.9-4-2.9-7.4-3.3-9.7-.5-2.4-.7-3.6-.7-3.6zm.1 0s.2 1.2.7 3.6c.5 2.3 1.5 5.6 3.4 9.6 2 3.9 5.1 8.4 9.9 12.3 4.7 3.9 11 7.2 18.2 9 7.3 1.9 15.5 2.7 24.1 2.4 1.1-.1 2.2-.1 3.3-.2.5 0 1.1-.1 1.7-.1.5 0 1.1-.1 1.6-.2 1.1-.1 2.2-.3 3.3-.4l.8-.1.8-.2 1.6-.4c1.1-.3 2.2-.5 3.3-.8 1.1-.4 2.2-.7 3.3-1.1 1.1-.3 2.2-.8 3.2-1.3s2.1-.9 3.2-1.5c4.1-2.2 8-5 11.6-8.2 3.5-3.4 6.5-7.2 9-11.4 2.4-4.3 4.3-8.9 5.4-13.8l.7-3.7.3-3.7.1-.9V48.4l-.2-1.9c-.2-2.5-.7-5-1.3-7.4-.7-2.4-1.5-4.8-2.6-7s-2.4-4.4-3.9-6.3c-1.6-1.9-3.3-3.7-5.2-5.3-3.9-3-8.4-5.2-13.1-6.6-4.6-1.4-9.4-2.2-14.1-2.6-4.7-.4-9.4-.4-13.9-.2-2.3.1-4.5.2-6.7.4-2.2.3-4.4.5-6.5.8-8.5 1.4-16.3 4.4-22.5 8.5-6.3 4.1-11 9.4-14 14.7C7.7 40.8 6.2 46 5.4 50.4c-.6 4.3-.6 7.8-.4 10.2.3 2.3.4 3.6.4 3.6z" fill="#fff"/><path d="M59.4 10c6.3-3.2 18.8 2 18.8 2s.4 12.2-5.5 16.1c-1.4 1-3.8 1.8-6.2 2 .2.2.4.3.6.4 5.7 4.3 4.1 17.1 4.1 17.1s-12.9 4.4-19 .6c-1.7-1.1-3.6-3.2-4.6-5.7-1.5 2.4-4.2 4.3-7.8 4.9-7 1.3-16.6-7.8-16.6-7.8S27.9 29 34.5 26.1c.7-.3 1.5-.6 2.2-.7-1.3-.7-2.4-1.8-3.2-3.6-2.7-6 2.1-16.6 2.1-16.6s14-1 18.2 4.1c.9 1.1 1.5 2.2 1.8 3.5.9-1 2.1-1.9 3.8-2.8z" fill="#638b3e" stroke="#fff" stroke-width=".5" stroke-miterlimit="10"/><path d="M51.7 21.2c.3 2.3-1.2 4.5-3.4 4.7-2.4.7-4.2-1.4-4.5-3.7v-.3c.3-2.2 1.2-4.5 3.4-4.7 3.8.9 4.2 1.4 4.5 3.7v.3z" fill="#557334" stroke="#557334" stroke-miterlimit="10"/></svg>